<svg width="207" height="115" viewBox="0 0 207 115" fill="none" xmlns="http://www.w3.org/2000/svg">
<path d="M89.0365 31.5615C87.7076 30.5648 45.5149 1.66113 43.1893 0H42.1927V5.98007H26.2458V19.6013C26.2458 19.9336 24.5847 20.598 23.588 20.598C22.5914 20.598 21.2625 21.9269 20.9302 22.5914C20.6644 23.1229 21.041 28.1285 21.2625 30.5648H3.32226C2.52492 30.5648 2.54707 30.7863 2.65781 30.897L2.99003 31.8937C3.433 32.3367 4.51827 33.4884 5.31561 34.5515C6.31229 35.8804 6.64452 36.8771 6.31229 37.8738C6.04651 38.6711 5.31561 39.9779 4.98339 40.5316C5.20487 40.8638 5.78073 41.6196 6.31229 41.9851C6.97674 42.4419 6.31229 43.8538 6.97674 46.1794C7.50831 48.0399 6.75526 49.6124 6.31229 50.1661C5.86932 51.938 4.91693 55.6146 4.65112 56.1462C4.31885 56.8106 4.65112 58.1395 3.98667 60.4651C3.4551 62.3256 1.1074 63.2337 0 63.4552C0.332226 63.6766 1.12957 64.2525 1.66113 64.7841C2.19269 65.3156 2.54707 66.113 2.65781 66.4452C3.10076 66.9989 4.18601 68.3721 4.98339 69.4352C5.78077 70.4983 7.97344 70.3212 8.9701 70.0997C8.63787 70.2104 7.84053 70.4983 7.30897 70.7641C6.64452 71.0963 4.98334 71.4286 3.98667 70.4319C3.18932 69.6346 3.43296 70.7641 3.65444 71.4286V73.4219C3.65444 74.4186 4.98334 74.0864 4.65112 74.4186C4.31889 74.7508 3.65444 74.4186 3.65444 75.0831C3.65444 75.6146 4.98334 75.7475 5.6478 75.7475V76.412L6.31225 77.4086H6.9767L7.30892 78.0731C7.53041 78.0731 8.23916 77.9402 9.30228 77.4086C10.3654 76.8771 10.8527 77.4086 10.9634 77.7409C10.5204 77.8516 9.63451 78.206 9.63451 78.7375C9.63451 79.2691 10.5204 79.1805 10.9634 79.0698L9.96673 80.3987C10.6312 80.7309 11.9601 81.6611 11.9601 82.7243C11.9601 84.0532 18.2724 86.3787 20.9302 90.6977C23.588 95.0166 19.9335 97.6744 23.9202 98.6711C27.9069 99.6678 44.5182 115.282 47.8405 114.286C51.1627 113.289 55.8139 111.296 57.8073 110.299C59.4019 109.502 60.0221 109.967 60.1328 110.299H62.4584C62.9014 109.745 64.186 108.97 65.7807 110.299C67.3754 111.628 68.4385 110.853 68.7707 110.299L70.4318 111.296L75.083 111.96C75.3045 110.853 76.1461 108.97 77.7408 110.299C79.7342 111.96 82.392 106.977 84.7176 107.641C87.0431 108.306 86.3787 107.309 91.6943 104.983C97.0099 102.658 96.6777 104.319 98.3388 104.319C100 104.319 104.651 104.319 105.648 104.983C106.644 105.648 109.302 108.306 110.299 108.638C111.296 108.97 109.635 109.635 109.635 110.299C109.635 110.831 110.52 112.292 110.963 112.957L112.292 114.286H113.621L113.953 113.953L114.493 114.286H115.282L116.279 113.289C116.943 112.625 116.611 114.286 117.276 113.953C117.807 113.688 118.162 113.178 118.272 112.957C118.605 112.957 119.468 113.09 120.266 113.621C121.262 114.286 120.93 112.292 123.256 113.289C125.116 114.086 124.031 112.735 123.256 111.96C123.477 112.182 124.053 112.625 124.585 112.625C125.249 112.625 125.581 113.289 124.917 111.296C124.252 109.302 128.571 104.651 130.565 102.326C132.558 100 131.894 101.329 133.223 102.326C134.286 103.123 134.33 101.993 134.219 101.329C134.662 101.661 135.747 102.791 136.545 104.651C137.541 106.977 137.874 103.987 139.535 102.326C141.196 100.664 143.522 94.3522 144.186 92.691C144.718 91.3621 145.515 90.8084 145.847 90.6977C146.29 90.0332 147.176 88.2392 147.176 86.3787C147.176 84.0532 149.169 83.0565 150.498 81.3953C151.827 79.7342 152.824 80.7309 154.153 79.0698C155.482 77.4086 153.821 76.412 152.159 76.412C150.831 75.6146 150.498 73.2004 150.498 72.093C149.723 70.6534 148.173 67.3754 148.173 65.7807C148.173 64.1861 151.273 60.2436 152.824 58.4718C154.374 57.1429 157.475 53.9535 157.475 51.8272C157.475 49.1694 159.136 40.1993 158.804 39.2027C158.538 38.4053 159.579 36.8771 160.133 36.2126L157.475 31.5615C157.143 30.454 156.412 27.7741 156.146 25.9136C155.88 24.0532 155.592 22.4806 155.482 21.9269C154.817 22.3699 153.223 23.3887 152.159 23.9203C150.831 24.5847 148.173 21.5947 147.176 20.598C146.379 19.8007 143.3 19.3798 141.86 19.2691C138.76 21.4839 131.761 26.2458 128.571 27.5748C124.585 29.2359 112.957 39.2027 112.292 40.1993C111.761 40.9967 106.755 41.639 104.319 41.8605C102.99 42.082 100 42.392 98.6711 41.8605C97.0099 41.196 99.3355 39.2027 98.6711 38.206C98.1395 37.4086 95.7918 36.5448 94.6843 36.2126C93.3554 35.7697 90.3654 34.5515 89.0365 33.2226C87.3754 31.5615 90.3654 32.5581 89.0365 31.5615Z" fill="#5D4954"/>
<path d="M156.06 110.1C154.473 110.1 153.093 109.813 151.92 109.24C150.747 108.653 149.847 107.827 149.22 106.76C148.593 105.693 148.28 104.453 148.28 103.04C148.28 101.08 148.647 99.34 149.38 97.82C150.127 96.3 151.133 95.1267 152.4 94.3C153.667 93.46 155.073 93.04 156.62 93.04C158.06 93.04 159.153 93.4133 159.9 94.16C160.647 94.8933 161.02 95.8667 161.02 97.08C161.02 97.8933 160.873 98.5467 160.58 99.04C160.3 99.5333 159.893 99.78 159.36 99.78C158.987 99.78 158.693 99.6933 158.48 99.52C158.267 99.3467 158.16 99.0933 158.16 98.76C158.16 98.64 158.187 98.42 158.24 98.1C158.32 97.7 158.36 97.38 158.36 97.14C158.36 95.9267 157.713 95.32 156.42 95.32C155.54 95.32 154.7 95.6067 153.9 96.18C153.1 96.7533 152.453 97.6 151.96 98.72C151.467 99.8267 151.22 101.147 151.22 102.68C151.22 104.28 151.667 105.52 152.56 106.4C153.453 107.267 154.773 107.7 156.52 107.7C157.387 107.7 158.26 107.593 159.14 107.38C160.033 107.153 161.02 106.813 162.1 106.36C162.3 106.28 162.467 106.24 162.6 106.24C162.813 106.24 162.973 106.32 163.08 106.48C163.187 106.64 163.24 106.847 163.24 107.1C163.24 107.913 162.8 108.513 161.92 108.9C160.973 109.313 159.987 109.62 158.96 109.82C157.947 110.007 156.98 110.1 156.06 110.1ZM168.311 110.1C167.124 110.1 166.051 109.833 165.091 109.3C164.144 108.767 163.391 107.987 162.831 106.96C162.271 105.92 161.991 104.68 161.991 103.24C161.991 101.213 162.358 99.4267 163.091 97.88C163.838 96.3333 164.844 95.14 166.111 94.3C167.391 93.46 168.804 93.04 170.351 93.04C171.538 93.04 172.604 93.3067 173.551 93.84C174.511 94.3733 175.271 95.16 175.831 96.2C176.391 97.2267 176.671 98.46 176.671 99.9C176.671 101.927 176.298 103.713 175.551 105.26C174.818 106.807 173.811 108 172.531 108.84C171.264 109.68 169.858 110.1 168.311 110.1ZM168.511 107.74C169.551 107.74 170.464 107.42 171.251 106.78C172.051 106.14 172.664 105.253 173.091 104.12C173.518 102.973 173.731 101.68 173.731 100.24C173.731 98.6533 173.398 97.4533 172.731 96.64C172.064 95.8133 171.204 95.4 170.151 95.4C169.124 95.4 168.218 95.72 167.431 96.36C166.644 96.9867 166.031 97.8733 165.591 99.02C165.151 100.153 164.931 101.447 164.931 102.9C164.931 104.487 165.264 105.693 165.931 106.52C166.598 107.333 167.458 107.74 168.511 107.74ZM181.679 110.1C181.186 110.1 180.832 109.993 180.619 109.78C180.406 109.553 180.299 109.133 180.299 108.52C180.299 108.107 180.339 107.58 180.419 106.94C180.512 106.287 180.659 105.393 180.859 104.26C181.206 102.167 181.479 100.353 181.679 98.82C181.799 97.86 181.859 97.06 181.859 96.42C181.859 95.82 181.639 95.52 181.199 95.52C180.852 95.52 180.432 95.7 179.939 96.06C179.459 96.4067 178.926 96.9667 178.339 97.74C178.152 97.9933 177.946 98.12 177.719 98.12C177.532 98.12 177.366 98.0333 177.219 97.86C177.086 97.6733 177.019 97.4667 177.019 97.24C177.019 97.0267 177.059 96.8133 177.139 96.6C177.232 96.3733 177.379 96.12 177.579 95.84C178.219 94.9467 178.932 94.26 179.719 93.78C180.506 93.2867 181.292 93.04 182.079 93.04C182.812 93.04 183.372 93.2733 183.759 93.74C184.159 94.2067 184.359 94.8867 184.359 95.78C184.359 96.14 184.326 96.5667 184.259 97.06C184.192 97.54 184.132 97.9333 184.079 98.24C184.026 98.5467 183.986 98.76 183.959 98.88C184.719 96.7067 185.572 95.1933 186.519 94.34C187.466 93.4733 188.506 93.04 189.639 93.04C190.506 93.04 191.186 93.3467 191.679 93.96C192.186 94.5733 192.439 95.44 192.439 96.56C192.439 97 192.379 97.5467 192.259 98.2C192.926 96.36 193.706 95.04 194.599 94.24C195.492 93.44 196.519 93.04 197.679 93.04C198.612 93.04 199.326 93.34 199.819 93.94C200.326 94.54 200.579 95.38 200.579 96.46C200.579 97.0467 200.492 97.76 200.319 98.6L199.099 104.32C198.966 104.987 198.899 105.56 198.899 106.04C198.899 106.6 199.026 107.02 199.279 107.3C199.546 107.58 199.912 107.72 200.379 107.72C200.819 107.72 201.246 107.573 201.659 107.28C202.086 106.987 202.586 106.5 203.159 105.82C203.319 105.633 203.499 105.54 203.699 105.54C203.872 105.54 204.006 105.62 204.099 105.78C204.206 105.94 204.259 106.16 204.259 106.44C204.259 106.96 204.132 107.373 203.879 107.68C203.186 108.52 202.499 109.133 201.819 109.52C201.139 109.907 200.426 110.1 199.679 110.1C198.546 110.1 197.659 109.767 197.019 109.1C196.379 108.42 196.059 107.513 196.059 106.38C196.059 105.593 196.219 104.453 196.539 102.96L197.339 99.3C197.366 99.18 197.412 98.9667 197.479 98.66C197.546 98.3533 197.599 98.0667 197.639 97.8C197.679 97.52 197.699 97.2467 197.699 96.98C197.699 96.5133 197.606 96.1667 197.419 95.94C197.246 95.7 196.992 95.58 196.659 95.58C196.032 95.58 195.372 95.9867 194.679 96.8C193.999 97.6 193.346 98.9333 192.719 100.8C192.106 102.667 191.606 105.093 191.219 108.08C191.126 108.88 190.959 109.42 190.719 109.7C190.492 109.967 190.119 110.1 189.599 110.1C189.146 110.1 188.812 109.993 188.599 109.78C188.399 109.567 188.299 109.167 188.299 108.58C188.299 108.033 188.372 107.32 188.519 106.44C188.666 105.547 188.852 104.5 189.079 103.3C189.692 100.073 189.999 97.9933 189.999 97.06C189.999 96.5533 189.899 96.18 189.699 95.94C189.512 95.7 189.226 95.58 188.839 95.58C188.186 95.58 187.512 95.9533 186.819 96.7C186.126 97.4333 185.446 98.7467 184.779 100.64C184.126 102.52 183.579 105.067 183.139 108.28C183.046 108.96 182.906 109.433 182.719 109.7C182.546 109.967 182.199 110.1 181.679 110.1Z" fill="#5D4954"/>
</svg>
